G04 #@! TF.GenerationSoftware,KiCad,Pcbnew,(7.0.0)*
G04 #@! TF.CreationDate,2023-04-13T16:49:27+01:00*
G04 #@! TF.ProjectId,Pi_HAT,50695f48-4154-42e6-9b69-6361645f7063,rev?*
G04 #@! TF.SameCoordinates,Original*
G04 #@! TF.FileFunction,Copper,L2,Bot*
G04 #@! TF.FilePolarity,Positive*
%FSLAX46Y46*%
G04 Gerber Fmt 4.6, Leading zero omitted, Abs format (unit mm)*
G04 Created by KiCad (PCBNEW (7.0.0)) date 2023-04-13 16:49:27*
%MOMM*%
%LPD*%
G01*
G04 APERTURE LIST*
G04 Aperture macros list*
%AMRoundRect*
0 Rectangle with rounded corners*
0 $1 Rounding radius*
0 $2 $3 $4 $5 $6 $7 $8 $9 X,Y pos of 4 corners*
0 Add a 4 corners polygon primitive as box body*
4,1,4,$2,$3,$4,$5,$6,$7,$8,$9,$2,$3,0*
0 Add four circle primitives for the rounded corners*
1,1,$1+$1,$2,$3*
1,1,$1+$1,$4,$5*
1,1,$1+$1,$6,$7*
1,1,$1+$1,$8,$9*
0 Add four rect primitives between the rounded corners*
20,1,$1+$1,$2,$3,$4,$5,0*
20,1,$1+$1,$4,$5,$6,$7,0*
20,1,$1+$1,$6,$7,$8,$9,0*
20,1,$1+$1,$8,$9,$2,$3,0*%
G04 Aperture macros list end*
G04 #@! TA.AperFunction,ComponentPad*
%ADD10RoundRect,0.250000X-0.350000X-0.625000X0.350000X-0.625000X0.350000X0.625000X-0.350000X0.625000X0*%
G04 #@! TD*
G04 #@! TA.AperFunction,ComponentPad*
%ADD11O,1.200000X1.750000*%
G04 #@! TD*
G04 #@! TA.AperFunction,ComponentPad*
%ADD12R,1.700000X1.700000*%
G04 #@! TD*
G04 #@! TA.AperFunction,ComponentPad*
%ADD13O,1.700000X1.700000*%
G04 #@! TD*
G04 APERTURE END LIST*
D10*
X135490000Y-93220000D03*
D11*
X137489999Y-93219999D03*
X139489999Y-93219999D03*
D12*
X108369999Y-48769999D03*
D13*
X108369999Y-46229999D03*
X110909999Y-48769999D03*
X110909999Y-46229999D03*
X113449999Y-48769999D03*
X113449999Y-46229999D03*
X115989999Y-48769999D03*
X115989999Y-46229999D03*
X118529999Y-48769999D03*
X118529999Y-46229999D03*
X121069999Y-48769999D03*
X121069999Y-46229999D03*
X123609999Y-48769999D03*
X123609999Y-46229999D03*
X126149999Y-48769999D03*
X126149999Y-46229999D03*
X128689999Y-48769999D03*
X128689999Y-46229999D03*
X131229999Y-48769999D03*
X131229999Y-46229999D03*
X133769999Y-48769999D03*
X133769999Y-46229999D03*
X136309999Y-48769999D03*
X136309999Y-46229999D03*
X138849999Y-48769999D03*
X138849999Y-46229999D03*
X141389999Y-48769999D03*
X141389999Y-46229999D03*
X143929999Y-48769999D03*
X143929999Y-46229999D03*
X146469999Y-48769999D03*
X146469999Y-46229999D03*
X149009999Y-48769999D03*
X149009999Y-46229999D03*
X151549999Y-48769999D03*
X151549999Y-46229999D03*
X154089999Y-48769999D03*
X154089999Y-46229999D03*
X156629999Y-48769999D03*
X156629999Y-46229999D03*
M02*
